<svg xmlns="http://www.w3.org/2000/svg" viewBox="0 0 470.83 250.95"><defs><style>.cls-1{fill:#fff;}</style></defs><title>Asset 1</title><g id="Layer_2" data-name="Layer 2"><g id="Layer_1-2" data-name="Layer 1"><path class="cls-1" d="M240.39,251c-3.88-.76-7.85-1.24-11.64-2.33-13-3.76-24.07-10.63-32.31-21.61a5.48,5.48,0,0,1-.53-1.29l-.77.51v20.57H150.08V0h49V105.26a5.44,5.44,0,0,0,1.08-.72C208,94.26,218.64,88.68,231,86.15c15.53-3.16,30.89-3,45.7,3.4,15.51,6.67,26.7,18,34.56,32.76,8.58,16.09,12,33.34,11.14,51.48-.77,17.15-5.28,33.09-15.49,47.11-11.87,16.3-28.08,25.5-47.79,28.82-3.05.51-6.14.83-9.21,1.24Zm33.13-83.59c0-1.26.05-2.52,0-3.78a33.77,33.77,0,0,0-.38-3.56c-2.32-14.55-9.56-25.35-23.88-30.34a45,45,0,0,0-29.7,0,32.75,32.75,0,0,0-20.31,18.14c-5.61,12.48-5.73,25.23-.73,37.89,3.89,9.87,11.13,16.47,21.21,19.85a46.36,46.36,0,0,0,26.09.93,34,34,0,0,0,23.13-18A42.92,42.92,0,0,0,273.52,167.37Z"/><path class="cls-1" d="M0,162.85c.68-4.17,1.15-8.38,2.06-12.49a62.38,62.38,0,0,1,17.27-31.7,57.76,57.76,0,0,1,33.45-16.19c13.19-1.81,26-.34,38,5.64,15.8,7.87,25.94,20.66,30.89,37.41,6,20.36,4.63,40.28-6.09,58.85-10.6,18.37-27,27.91-48.1,29.54a63.07,63.07,0,0,1-31.1-5.13c-14.58-6.51-24.6-17.48-30.78-32.08A70.19,70.19,0,0,1,.29,174,12.5,12.5,0,0,0,0,172.42Zm61.6-24.37c-12,0-21.77,5.54-26.48,15.87-3.83,8.41-3.81,17.14-.63,25.76A24.48,24.48,0,0,0,49,194.86a35.78,35.78,0,0,0,26.62.23,24.77,24.77,0,0,0,14.81-14.43,33.93,33.93,0,0,0,.8-23.19,25.2,25.2,0,0,0-13.8-15.88A34.55,34.55,0,0,0,61.6,138.48Z"/><path class="cls-1" d="M467.61,112.3V146H453.08l-.16.44c1.22.94,2.47,1.82,3.64,2.82,7.48,6.35,11.46,14.63,13.19,24.11,2.15,11.81,1.26,23.33-4.31,34.11-6.56,12.7-17.14,19.11-31.51,19.18-8.65,0-16.57-2.11-23.27-7.76-6.06-5.11-9.77-11.8-12.38-19.17A99.41,99.41,0,0,1,393,172.41c-.5-8.07-.58-16.17-.85-24.26,0-.65-.06-1.3-.09-2.14-7.23,0-12.86,2.91-16.88,8.68-5.34,7.67-5.44,16.16-3.17,24.82a38,38,0,0,0,10,17.15c.88.89,1.88,1.67,3,2.64l-20.31,19.84c-2-2.53-4-4.82-5.67-7.31-8.46-12.39-12.48-26.23-13.16-41.13-.44-9.67.21-19.23,3.11-28.53,4.29-13.73,13.69-22.22,27.28-26.31,9.62-2.9,19.54-3.64,29.51-3.67,19.93-.05,39.86,0,59.79,0C466.22,112.21,466.8,112.26,467.61,112.3ZM415.5,152.43l-.3,0c.45,5.94.73,11.9,1.4,17.82.61,5.44,2,10.71,5.24,15.28,6,8.55,17.16,7.73,21.74-1.59,3.07-6.24,2.71-12.77,1.12-19.25-1.85-7.51-5.57-13.73-13-17.11-4.93-2.25-10.16-1.52-15.3-1.53-.31,0-.85.88-.88,1.38C415.43,149.11,415.5,150.77,415.5,152.43Z"/></g></g></svg>